<svg id="Layer_5" enable-background="new 0 0 64 64" height="512" viewBox="0 0 64 64" width="512" xmlns="http://www.w3.org/2000/svg" xmlns:xlink="http://www.w3.org/1999/xlink"><linearGradient id="SVGID_1_" gradientUnits="userSpaceOnUse" x1="32" x2="32" y1="63" y2="1"><stop offset="0" stop-color="#9f2fff"/><stop offset="1" stop-color="#0bb1d3"/></linearGradient><path d="m16 10c-3.859 0-7 3.141-7 7s3.141 7 7 7 7-3.141 7-7-3.141-7-7-7zm0 12c-2.757 0-5-2.243-5-5s2.243-5 5-5 5 2.243 5 5-2.243 5-5 5zm-1 17h2v2h-2zm6 2h-2v-2h2zm4 0h-2v-2h2zm-18-2h2v2h-2zm4 0h2v2h-2zm49-38h-24c-1.654 0-3 1.346-3 3v12h-6v-1.709l-1.55-.544c-.133-.39-.289-.769-.466-1.133l.709-1.478-3.83-3.83-1.478.709c-.364-.177-.743-.333-1.133-.466l-.543-1.549h-5.418l-.544 1.55c-.39.133-.769.289-1.133.466l-1.478-.709-3.83 3.83.709 1.478c-.177.364-.333.743-.466 1.133l-1.549.543v5.417l1.549.545c.134.39.29.769.467 1.133l-.709 1.478 3.83 3.83 1.478-.709c.364.177.743.333 1.133.467l.544 1.548h1.708v7.014c-6.924.137-14 1.708-14 4.986v18c0 3.436 7.775 5 15 5s15-1.564 15-5v-18c0-3.278-7.076-4.849-14-4.986v-7.014h1.708l.545-1.549c.39-.134.769-.29 1.133-.467l1.478.709 3.83-3.83-.709-1.478c.177-.364.333-.743.467-1.133l1.548-.544v-1.708h6v6c0 1.654 1.346 3 3 3h11v4h-11c-1.654 0-3 1.346-3 3v20c0 1.654 1.346 3 3 3h24c1.654 0 3-1.346 3-3v-20c0-1.654-1.346-3-3-3h-11v-4h11c1.654 0 3-1.346 3-3v-20c0-1.654-1.346-3-3-3zm-44 60c-8.577 0-13-2.103-13-3v-3.333c2.775 1.588 8.018 2.333 13 2.333s10.225-.745 13-2.333v3.333c0 .897-4.423 3-13 3zm0-6c-8.577 0-13-2.103-13-3v-3.333c2.775 1.588 8.018 2.333 13 2.333s10.225-.745 13-2.333v3.333c0 .897-4.423 3-13 3zm0-6c-8.577 0-13-2.103-13-3v-3.333c2.775 1.588 8.018 2.333 13 2.333s10.225-.745 13-2.333v3.333c0 .897-4.423 3-13 3zm13-9c0 .897-4.423 3-13 3s-13-2.103-13-3 4.423-3 13-3 13 2.103 13 3zm-4-21.708-1.172.411-.141.497c-.171.596-.404 1.161-.693 1.68l-.253.453.537 1.118-1.826 1.826-1.118-.537-.453.253c-.519.289-1.084.522-1.68.693l-.497.142-.412 1.172h-2.584l-.411-1.172-.497-.141c-.596-.171-1.161-.404-1.68-.693l-.453-.253-1.118.537-1.826-1.826.537-1.118-.253-.454c-.289-.519-.522-1.084-.693-1.68l-.142-.497-1.172-.411v-2.583l1.174-.413.142-.497c.169-.595.401-1.159.691-1.679l.253-.453-.537-1.118 1.826-1.826 1.118.537.453-.253c.52-.29 1.084-.522 1.679-.691l.497-.142.413-1.174h2.582l.413 1.174.497.142c.595.169 1.159.401 1.679.691l.453.253 1.118-.537 1.826 1.826-.537 1.118.253.453c.29.52.522 1.084.691 1.679l.142.497 1.174.413zm35 36.708h-24c-.552 0-1-.448-1-1v-13h26v13c0 .552-.448 1-1 1zm1-21v5h-26v-5c0-.552.448-1 1-1h24c.552 0 1 .448 1 1zm-25-31h24c.552 0 1 .448 1 1v5h-26v-5c0-.552.448-1 1-1zm24 22h-24c-.552 0-1-.448-1-1v-13h26v13c0 .552-.448 1-1 1zm-21-18h-2v-2h2zm8 0h-2v-2h2zm-4 0h-2v-2h2zm-4 30h-2v-2h2zm4 0h-2v-2h2zm4 0h-2v-2h2zm-10-14h8v-10h-8zm2-8h4v6h-4zm10 0h-2v-2h2zm2-2h8v2h-8zm-4 4h12v2h-12zm0 4h12v2h-12zm0 32h12v-10h-12zm2-8h8v6h-8zm-12-2h8v2h-8zm0 4h8v2h-8zm0 4h8v2h-8z" fill="url(#SVGID_1_)"/></svg>